<svg id="Grupo_11" data-name="Grupo 11" xmlns="http://www.w3.org/2000/svg" width="46" height="46" viewBox="0 0 46 46">
  <g id="Grupo_9" data-name="Grupo 9" transform="translate(10.689 10.689)">
    <path id="Caminho_3" data-name="Caminho 3" d="M5.478,146.53l-.86,3.212-3.145.067a12.38,12.38,0,0,1-.091-11.54h0l2.8.513,1.226,2.783a7.376,7.376,0,0,0,.069,4.966Z" transform="translate(0 -131.593)" fill="#eb5181"/>
    <path id="Caminho_4" data-name="Caminho 4" d="M273.5,208.176a12.354,12.354,0,0,1-4.406,11.946h0l-3.526-.18-.5-3.115a7.366,7.366,0,0,0,3.169-3.761h-6.608v-4.889H273.5Z" transform="translate(-248.998 -198.126)" fill="#eb5181"/>
    <path id="Caminho_5" data-name="Caminho 5" d="M49.131,316.468h0a12.363,12.363,0,0,1-18.623-3.781l4.005-3.278a7.35,7.35,0,0,0,10.592,3.763Z" transform="translate(-29.036 -294.472)" fill="#eb5181"/>
    <path id="Caminho_6" data-name="Caminho 6" d="M47.489,2.845l-4,3.278A7.349,7.349,0,0,0,32.651,9.971l-4.026-3.3h0a12.361,12.361,0,0,1,18.865-3.83Z" transform="translate(-27.242)" fill="#eb5181"/>
  </g>
  <g id="Elipse_1" data-name="Elipse 1" fill="none" stroke="#eb5181" stroke-width="2">
    <circle cx="23" cy="23" r="23" stroke="none"/>
    <circle cx="23" cy="23" r="22" fill="none"/>
  </g>
</svg>
