<svg xmlns="http://www.w3.org/2000/svg" width="46" height="46" viewBox="0 0 46 46">
  <g id="Grupo_10" data-name="Grupo 10" transform="translate(0.164)">
    <path id="Caminho_7" data-name="Caminho 7" d="M23.233,50.229a9.931,9.931,0,0,1-2.744.752,4.736,4.736,0,0,0,2.1-2.633A9.518,9.518,0,0,1,19.564,49.5a4.763,4.763,0,0,0-8.24,3.258,4.9,4.9,0,0,0,.11,1.085,13.481,13.481,0,0,1-9.818-4.982A4.765,4.765,0,0,0,3.08,55.229a4.7,4.7,0,0,1-2.151-.587v.052a4.785,4.785,0,0,0,3.816,4.68,4.754,4.754,0,0,1-1.249.157,4.211,4.211,0,0,1-.9-.081,4.808,4.808,0,0,0,4.451,3.318A9.57,9.57,0,0,1,1.14,64.8,8.922,8.922,0,0,1,0,64.734a13.409,13.409,0,0,0,7.307,2.137A13.463,13.463,0,0,0,20.863,53.318c0-.211-.007-.414-.017-.616a9.5,9.5,0,0,0,2.387-2.473Z" transform="translate(11.431 -34.385)" fill="#eb5181"/>
    <g id="Elipse_2" data-name="Elipse 2" transform="translate(-0.164)" fill="none" stroke="#eb5181" stroke-width="2">
      <circle cx="23" cy="23" r="23" stroke="none"/>
      <circle cx="23" cy="23" r="22" fill="none"/>
    </g>
  </g>
</svg>
